<svg version="1.1" xmlns="http://www.w3.org/2000/svg" width="115" height="105">
<path d="M0 0 C4.11956912 3.62814843 6.09958339 7.59750032 7 13 C7.41259382 26.95537921 -0.39433344 38.47528418 -9.24609375 48.55859375 C-21.58363038 61.54440817 -37.511387 71.74247249 -55 76 C-55.75023437 76.18820313 -56.50046875 76.37640625 -57.2734375 76.5703125 C-57.84320313 76.71210937 -58.41296875 76.85390625 -59 77 C-56.20579508 80.91603304 -56.20579508 80.91603304 -52 83 C-37.18020293 84.74518846 -23.44093302 77.24310518 -11.89453125 68.703125 C-9.55639098 66.84316575 -7.25790652 64.95615864 -5 63 C-6.20381448 60.50638429 -7.45428722 58.31856917 -9 56 C-2.62528346 53.27713113 3.87162053 50.96137456 10.4375 48.75 C11.23075684 48.47978027 12.02401367 48.20956055 12.84130859 47.93115234 C13.5936377 47.68059082 14.3459668 47.4300293 15.12109375 47.171875 C15.7958374 46.9459668 16.47058105 46.72005859 17.16577148 46.48730469 C19 46 19 46 22 46 C21.42573481 52.9321347 20.43514933 59.68267843 19.0625 66.5 C18.80823242 67.83804688 18.80823242 67.83804688 18.54882812 69.203125 C18.29456055 70.47929687 18.29456055 70.47929687 18.03515625 71.78125 C17.8844165 72.54501953 17.73367676 73.30878906 17.57836914 74.09570312 C17 76 17 76 15 78 C13.35 76.68 11.7 75.36 10 74 C6.50640965 75.529452 3.98952335 77.62616048 1.125 80.125 C-14.91710062 93.4115334 -34.00471349 101.69215742 -55 100 C-61.32444818 98.51708123 -65.81068283 96.05182364 -70 91 C-70.70125 90.319375 -71.4025 89.63875 -72.125 88.9375 C-74.1337353 85.79048136 -74.62394934 83.50362268 -75.375 79.875 C-76.25890818 75.14930623 -76.25890818 75.14930623 -79.8125 72.1875 C-80.864375 71.795625 -81.91625 71.40375 -83 71 C-88.68249868 65.97634174 -91.56745372 60.32546285 -92.31640625 52.8359375 C-92.60939496 44.31091117 -91.96008822 34.22820635 -86.609375 27.1640625 C-84.21259521 25.43046935 -81.81731436 25.52913804 -78.94140625 25.65625 C-77 26 -77 26 -74.5 27.5625 C-72.16977283 31.34911916 -72.45140519 34.68009483 -73.4609375 38.94921875 C-73.82156723 40.27936755 -74.18486831 41.60879486 -74.55078125 42.9375 C-75.29389667 46.34936907 -75.18321749 49.51886766 -75 53 C-74.505 53.495 -74.505 53.495 -74 54 C-73.6596875 53.12859375 -73.319375 52.2571875 -72.96875 51.359375 C-63.95679591 29.21297719 -48.1390286 8.84710283 -26.125 -1.375 C-17.2027498 -5.06370415 -8.1610363 -5.75549067 0 0 Z M-27.40234375 17.58203125 C-29.68386091 19.30974425 -31.85368618 21.10737806 -34 23 C-34.89138672 23.78503906 -34.89138672 23.78503906 -35.80078125 24.5859375 C-43.74596154 32.07449823 -49.72943948 40.93734465 -54.625 50.625 C-54.98005615 51.32423584 -55.3351123 52.02347168 -55.70092773 52.74389648 C-56.53651158 54.4639919 -57.27741781 56.22946235 -58 58 C-57.67 58.66 -57.34 59.32 -57 60 C-47.07970059 56.01694378 -38.30360618 51.8874873 -30 45 C-29.13761719 44.30003906 -28.27523437 43.60007812 -27.38671875 42.87890625 C-20.1212248 36.69386512 -13.02674056 29.24504418 -10 20 C-9.92353835 17.6679198 -9.90856701 15.33154122 -10 13 C-16.65219644 11.20720947 -21.82375459 13.90832619 -27.40234375 17.58203125 Z M-76 57 C-75 61 -75 61 -75 61 Z M-59 61 C-58 64 -58 64 -58 64 Z M-77 62 C-77 64.31 -77 66.62 -77 69 C-76.67 69 -76.34 69 -76 69 C-76 66.69 -76 64.38 -76 62 C-76.33 62 -76.66 62 -77 62 Z " fill="#10B880" transform="translate(92,4)"/>
</svg>
